<?xml version="1.0" encoding="UTF-8" standalone="no"?><svg xmlns="http://www.w3.org/2000/svg" xmlns:xlink="http://www.w3.org/1999/xlink" contentStyleType="text/css" height="585px" preserveAspectRatio="none" style="width:590px;height:585px;background:#FFFFFF;" version="1.1" viewBox="0 0 590 585" width="590px" zoomAndPan="magnify"><defs><filter height="300%" id="fp9iut1oenhln" width="300%" x="-1" y="-1"><feGaussianBlur result="blurOut" stdDeviation="2.0"/><feColorMatrix in="blurOut" result="blurOut2" type="matrix" values="0 0 0 0 0 0 0 0 0 0 0 0 0 0 0 0 0 0 .4 0"/><feOffset dx="4.0" dy="4.0" in="blurOut2" result="blurOut3"/><feBlend in="SourceGraphic" in2="blurOut3" mode="normal"/></filter></defs><g><rect fill="#DDDDDD" height="573.3203" style="stroke:#A80036;stroke-width:1.0;" width="568" x="16" y="6"/><text fill="#000000" font-family="sans-serif" font-size="13" font-weight="bold" lengthAdjust="spacing" textLength="109" x="245.5" y="18.0669">Rob ATM (F03)</text><rect fill="#FFFFFF" filter="url(#fp9iut1oenhln)" height="365.5938" style="stroke:#A80036;stroke-width:1.0;" width="10" x="38.5" y="118.4297"/><rect fill="#FFFFFF" filter="url(#fp9iut1oenhln)" height="335.4609" style="stroke:#A80036;stroke-width:1.0;" width="10" x="249.5" y="139.5625"/><rect fill="#FFFFFF" filter="url(#fp9iut1oenhln)" height="277.1953" style="stroke:#A80036;stroke-width:1.0;" width="10" x="388.5" y="168.6953"/><rect fill="#FFFFFF" filter="url(#fp9iut1oenhln)" height="29.1328" style="stroke:#A80036;stroke-width:1.0;" width="10" x="543.5" y="387.625"/><rect filter="url(#fp9iut1oenhln)" height="133.6641" style="stroke:#000000;stroke-width:2.0;fill:none;" width="420" x="10" y="183.6953"/><line style="stroke:#A80036;stroke-width:1.0;fill:none;stroke-dasharray:5.0,5.0;" x1="43" x2="43" y1="108.4297" y2="493.0234"/><line style="stroke:#A80036;stroke-width:1.0;fill:none;stroke-dasharray:5.0,5.0;" x1="254.5" x2="254.5" y1="108.4297" y2="493.0234"/><line style="stroke:#A80036;stroke-width:1.0;fill:none;stroke-dasharray:5.0,5.0;" x1="393" x2="393" y1="108.4297" y2="493.0234"/><line style="stroke:#A80036;stroke-width:1.0;fill:none;stroke-dasharray:5.0,5.0;" x1="548" x2="548" y1="108.4297" y2="493.0234"/><text fill="#000000" font-family="sans-serif" font-size="14" lengthAdjust="spacing" textLength="41" x="20" y="105.1279">Player</text><ellipse cx="43.5" cy="35.1328" fill="#FEFECE" filter="url(#fp9iut1oenhln)" rx="8" ry="8" style="stroke:#A80036;stroke-width:2.0;"/><path d="M43.5,43.1328 L43.5,70.1328 M30.5,51.1328 L56.5,51.1328 M43.5,70.1328 L30.5,85.1328 M43.5,70.1328 L56.5,85.1328 " fill="none" filter="url(#fp9iut1oenhln)" style="stroke:#A80036;stroke-width:2.0;"/><text fill="#000000" font-family="sans-serif" font-size="14" lengthAdjust="spacing" textLength="41" x="20" y="505.0186">Player</text><ellipse cx="43.5" cy="518.3203" fill="#FEFECE" filter="url(#fp9iut1oenhln)" rx="8" ry="8" style="stroke:#A80036;stroke-width:2.0;"/><path d="M43.5,526.3203 L43.5,553.3203 M30.5,534.3203 L56.5,534.3203 M43.5,553.3203 L30.5,568.3203 M43.5,553.3203 L56.5,568.3203 " fill="none" filter="url(#fp9iut1oenhln)" style="stroke:#A80036;stroke-width:2.0;"/><rect fill="#FEFECE" filter="url(#fp9iut1oenhln)" height="30.2969" style="stroke:#A80036;stroke-width:1.5;" width="60" x="222.5" y="73.1328"/><text fill="#000000" font-family="sans-serif" font-size="14" lengthAdjust="spacing" textLength="46" x="229.5" y="93.1279">:Game</text><rect fill="#FEFECE" filter="url(#fp9iut1oenhln)" height="30.2969" style="stroke:#A80036;stroke-width:1.5;" width="60" x="222.5" y="492.0234"/><text fill="#000000" font-family="sans-serif" font-size="14" lengthAdjust="spacing" textLength="46" x="229.5" y="512.0186">:Game</text><rect fill="#FEFECE" filter="url(#fp9iut1oenhln)" height="30.2969" style="stroke:#A80036;stroke-width:1.5;" width="49" x="367" y="73.1328"/><text fill="#000000" font-family="sans-serif" font-size="14" lengthAdjust="spacing" textLength="35" x="374" y="93.1279">:ATM</text><rect fill="#FEFECE" filter="url(#fp9iut1oenhln)" height="30.2969" style="stroke:#A80036;stroke-width:1.5;" width="49" x="367" y="492.0234"/><text fill="#000000" font-family="sans-serif" font-size="14" lengthAdjust="spacing" textLength="35" x="374" y="512.0186">:ATM</text><rect fill="#FEFECE" filter="url(#fp9iut1oenhln)" height="30.2969" style="stroke:#A80036;stroke-width:1.5;" width="59" x="517" y="73.1328"/><text fill="#000000" font-family="sans-serif" font-size="14" lengthAdjust="spacing" textLength="45" x="524" y="93.1279">:Crime</text><rect fill="#FEFECE" filter="url(#fp9iut1oenhln)" height="30.2969" style="stroke:#A80036;stroke-width:1.5;" width="59" x="517" y="492.0234"/><text fill="#000000" font-family="sans-serif" font-size="14" lengthAdjust="spacing" textLength="45" x="524" y="512.0186">:Crime</text><rect fill="#FFFFFF" filter="url(#fp9iut1oenhln)" height="365.5938" style="stroke:#A80036;stroke-width:1.0;" width="10" x="38.5" y="118.4297"/><rect fill="#FFFFFF" filter="url(#fp9iut1oenhln)" height="335.4609" style="stroke:#A80036;stroke-width:1.0;" width="10" x="249.5" y="139.5625"/><rect fill="#FFFFFF" filter="url(#fp9iut1oenhln)" height="277.1953" style="stroke:#A80036;stroke-width:1.0;" width="10" x="388.5" y="168.6953"/><rect fill="#FFFFFF" filter="url(#fp9iut1oenhln)" height="29.1328" style="stroke:#A80036;stroke-width:1.0;" width="10" x="543.5" y="387.625"/><polygon fill="#A80036" points="237.5,135.5625,247.5,139.5625,237.5,143.5625,241.5,139.5625" style="stroke:#A80036;stroke-width:1.0;"/><line style="stroke:#A80036;stroke-width:1.0;" x1="48.5" x2="243.5" y1="139.5625" y2="139.5625"/><text fill="#000000" font-family="sans-serif" font-size="13" font-weight="bold" lengthAdjust="spacing" textLength="9" x="55.5" y="134.4966">1</text><text fill="#000000" font-family="sans-serif" font-size="13" lengthAdjust="spacing" textLength="169" x="68.5" y="134.4966">beginContact(Player, ATM)</text><polygon fill="#A80036" points="376.5,164.6953,386.5,168.6953,376.5,172.6953,380.5,168.6953" style="stroke:#A80036;stroke-width:1.0;"/><line style="stroke:#A80036;stroke-width:1.0;" x1="259.5" x2="382.5" y1="168.6953" y2="168.6953"/><text fill="#000000" font-family="sans-serif" font-size="13" font-weight="bold" lengthAdjust="spacing" textLength="9" x="266.5" y="163.6294">2</text><text fill="#000000" font-family="sans-serif" font-size="13" lengthAdjust="spacing" textLength="76" x="279.5" y="163.6294">startTimer()</text><path d="M10,183.6953 L80,183.6953 L80,190.8281 L70,200.8281 L10,200.8281 L10,183.6953 " fill="#EEEEEE" style="stroke:#000000;stroke-width:1.0;"/><rect fill="none" height="133.6641" style="stroke:#000000;stroke-width:2.0;" width="420" x="10" y="183.6953"/><text fill="#000000" font-family="sans-serif" font-size="13" font-weight="bold" lengthAdjust="spacing" textLength="25" x="25" y="196.7622">opt</text><text fill="#000000" font-family="sans-serif" font-size="11" font-weight="bold" lengthAdjust="spacing" textLength="159" x="95" y="195.9058">[player leaves proximity]</text><polygon fill="#A80036" points="237.5,217.9609,247.5,221.9609,237.5,225.9609,241.5,221.9609" style="stroke:#A80036;stroke-width:1.0;"/><line style="stroke:#A80036;stroke-width:1.0;" x1="48.5" x2="243.5" y1="221.9609" y2="221.9609"/><text fill="#000000" font-family="sans-serif" font-size="13" font-weight="bold" lengthAdjust="spacing" textLength="9" x="55.5" y="216.895">3</text><text fill="#000000" font-family="sans-serif" font-size="13" lengthAdjust="spacing" textLength="158" x="68.5" y="216.895">endContact(Player, ATM)</text><polygon fill="#A80036" points="376.5,247.0938,386.5,251.0938,376.5,255.0938,380.5,251.0938" style="stroke:#A80036;stroke-width:1.0;"/><line style="stroke:#A80036;stroke-width:1.0;" x1="259.5" x2="382.5" y1="251.0938" y2="251.0938"/><text fill="#000000" font-family="sans-serif" font-size="13" font-weight="bold" lengthAdjust="spacing" textLength="9" x="266.5" y="246.0278">4</text><text fill="#000000" font-family="sans-serif" font-size="13" lengthAdjust="spacing" textLength="74" x="279.5" y="246.0278">stopTimer()</text><polygon fill="#A80036" points="270.5,276.2266,260.5,280.2266,270.5,284.2266,266.5,280.2266" style="stroke:#A80036;stroke-width:1.0;"/><line style="stroke:#A80036;stroke-width:1.0;stroke-dasharray:2.0,2.0;" x1="264.5" x2="387.5" y1="280.2266" y2="280.2266"/><text fill="#000000" font-family="sans-serif" font-size="13" font-weight="bold" lengthAdjust="spacing" textLength="9" x="276.5" y="275.1606">5</text><text fill="#000000" font-family="sans-serif" font-size="13" lengthAdjust="spacing" textLength="92" x="289.5" y="275.1606">Timer stopped</text><polygon fill="#A80036" points="59.5,305.3594,49.5,309.3594,59.5,313.3594,55.5,309.3594" style="stroke:#A80036;stroke-width:1.0;"/><line style="stroke:#A80036;stroke-width:1.0;stroke-dasharray:2.0,2.0;" x1="53.5" x2="248.5" y1="309.3594" y2="309.3594"/><text fill="#000000" font-family="sans-serif" font-size="13" font-weight="bold" lengthAdjust="spacing" textLength="9" x="65.5" y="304.2935">6</text><text fill="#000000" font-family="sans-serif" font-size="13" lengthAdjust="spacing" textLength="132" x="78.5" y="304.2935">Robbery not initiated</text><line style="stroke:#A80036;stroke-width:1.0;" x1="398.5" x2="440.5" y1="345.4922" y2="345.4922"/><line style="stroke:#A80036;stroke-width:1.0;" x1="440.5" x2="440.5" y1="345.4922" y2="358.4922"/><line style="stroke:#A80036;stroke-width:1.0;" x1="399.5" x2="440.5" y1="358.4922" y2="358.4922"/><polygon fill="#A80036" points="409.5,354.4922,399.5,358.4922,409.5,362.4922,405.5,358.4922" style="stroke:#A80036;stroke-width:1.0;"/><text fill="#000000" font-family="sans-serif" font-size="13" font-weight="bold" lengthAdjust="spacing" textLength="9" x="405.5" y="340.4263">7</text><text fill="#000000" font-family="sans-serif" font-size="13" lengthAdjust="spacing" textLength="96" x="418.5" y="340.4263">Wait X seconds</text><polygon fill="#A80036" points="531.5,383.625,541.5,387.625,531.5,391.625,535.5,387.625" style="stroke:#A80036;stroke-width:1.0;"/><line style="stroke:#A80036;stroke-width:1.0;" x1="398.5" x2="537.5" y1="387.625" y2="387.625"/><text fill="#000000" font-family="sans-serif" font-size="13" font-weight="bold" lengthAdjust="spacing" textLength="9" x="405.5" y="382.5591">8</text><text fill="#000000" font-family="sans-serif" font-size="13" lengthAdjust="spacing" textLength="85" x="418.5" y="382.5591">commit(atm)</text><polygon fill="#A80036" points="409.5,412.7578,399.5,416.7578,409.5,420.7578,405.5,416.7578" style="stroke:#A80036;stroke-width:1.0;"/><line style="stroke:#A80036;stroke-width:1.0;stroke-dasharray:2.0,2.0;" x1="403.5" x2="547.5" y1="416.7578" y2="416.7578"/><text fill="#000000" font-family="sans-serif" font-size="13" font-weight="bold" lengthAdjust="spacing" textLength="9" x="415.5" y="411.6919">9</text><text fill="#000000" font-family="sans-serif" font-size="13" lengthAdjust="spacing" textLength="108" x="428.5" y="411.6919">Crime successful</text><polygon fill="#A80036" points="270.5,441.8906,260.5,445.8906,270.5,449.8906,266.5,445.8906" style="stroke:#A80036;stroke-width:1.0;"/><line style="stroke:#A80036;stroke-width:1.0;stroke-dasharray:2.0,2.0;" x1="264.5" x2="392.5" y1="445.8906" y2="445.8906"/><text fill="#000000" font-family="sans-serif" font-size="13" font-weight="bold" lengthAdjust="spacing" textLength="18" x="276.5" y="440.8247">10</text><text fill="#000000" font-family="sans-serif" font-size="13" lengthAdjust="spacing" textLength="79" x="298.5" y="440.8247">ATM Robbed</text><polygon fill="#A80036" points="59.5,471.0234,49.5,475.0234,59.5,479.0234,55.5,475.0234" style="stroke:#A80036;stroke-width:1.0;"/><line style="stroke:#A80036;stroke-width:1.0;stroke-dasharray:2.0,2.0;" x1="53.5" x2="253.5" y1="475.0234" y2="475.0234"/><text fill="#000000" font-family="sans-serif" font-size="13" font-weight="bold" lengthAdjust="spacing" textLength="18" x="65.5" y="469.9575">11</text><text fill="#000000" font-family="sans-serif" font-size="13" lengthAdjust="spacing" textLength="79" x="87.5" y="469.9575">ATM Robbed</text><!--MD5=[0600e4c99112e0ebc3cf2fb44096d06a]
@startuml
'https://plantuml.com/sequence-diagram
skin rose
autonumber

box Rob ATM (F03)
    actor "Player" as player
    participant ":Game" as game
    participant ":ATM" as atm
    participant ":Crime" as crime
end box

activate player
player -> game : beginContact(Player, ATM)
activate game
game -> atm : startTimer()
activate atm

opt player leaves proximity
    player -> game: endContact(Player, ATM)
    game -> atm: stopTimer()
    atm - -> game: Timer stopped
    game - -> player: Robbery not initiated
end

atm -> atm: Wait X seconds

atm -> crime: commit(atm)
activate crime
crime - -> atm : Crime successful
deactivate crime
atm - -> game: ATM Robbed
deactivate atm

game - -> player : ATM Robbed
deactivate game

@enduml

@startuml
skin rose
autonumber

box Rob ATM (F03)
    actor "Player" as player
    participant ":Game" as game
    participant ":ATM" as atm
    participant ":Crime" as crime
end box

activate player
player -> game : beginContact(Player, ATM)
activate game
game -> atm : startTimer()
activate atm

opt player leaves proximity
    player -> game: endContact(Player, ATM)
    game -> atm: stopTimer()
    atm - -> game: Timer stopped
    game - -> player: Robbery not initiated
end

atm -> atm: Wait X seconds

atm -> crime: commit(atm)
activate crime
crime - -> atm : Crime successful
deactivate crime
atm - -> game: ATM Robbed
deactivate atm

game - -> player : ATM Robbed
deactivate game

@enduml

PlantUML version 1.2022.5(Sat Apr 30 10:55:52 UTC 2022)
(GPL source distribution)
Java Runtime: OpenJDK Runtime Environment
JVM: OpenJDK 64-Bit Server VM
Default Encoding: UTF-8
Language: en
Country: null
--></g></svg>