<?xml version="1.0" encoding="UTF-8" standalone="no"?><svg xmlns="http://www.w3.org/2000/svg" xmlns:xlink="http://www.w3.org/1999/xlink" contentStyleType="text/css" height="264px" preserveAspectRatio="none" style="width:198px;height:264px;background:#FFFFFF;" version="1.1" viewBox="0 0 198 264" width="198px" zoomAndPan="magnify"><defs/><g><rect fill="#DDDDDD" height="252.9922" style="stroke:#181818;stroke-width:0.5;" width="191.5" x="1" y="6"/><text fill="#000000" font-family="sans-serif" font-size="13" font-weight="bold" lengthAdjust="spacing" textLength="150" x="21.75" y="18.0669">Shoot missiles (F03)</text><rect fill="#FFFFFF" height="38.1328" style="stroke:#181818;stroke-width:1.0;" width="10" x="153.5" y="132.5625"/><line style="stroke:#181818;stroke-width:0.5;stroke-dasharray:5.0,5.0;" x1="28" x2="28" y1="101.4297" y2="179.6953"/><line style="stroke:#181818;stroke-width:0.5;stroke-dasharray:5.0,5.0;" x1="158.5" x2="158.5" y1="101.4297" y2="179.6953"/><text fill="#000000" font-family="sans-serif" font-size="14" lengthAdjust="spacing" textLength="41" x="5" y="98.1279">Player</text><ellipse cx="28.5" cy="33.6328" fill="#E2E2F0" rx="8" ry="8" style="stroke:#181818;stroke-width:0.5;"/><path d="M28.5,41.6328 L28.5,68.6328 M15.5,49.6328 L41.5,49.6328 M28.5,68.6328 L15.5,83.6328 M28.5,68.6328 L41.5,83.6328 " fill="none" style="stroke:#181818;stroke-width:0.5;"/><text fill="#000000" font-family="sans-serif" font-size="14" lengthAdjust="spacing" textLength="41" x="5" y="191.6904">Player</text><ellipse cx="28.5" cy="203.4922" fill="#E2E2F0" rx="8" ry="8" style="stroke:#181818;stroke-width:0.5;"/><path d="M28.5,211.4922 L28.5,238.4922 M15.5,219.4922 L41.5,219.4922 M28.5,238.4922 L15.5,253.4922 M28.5,238.4922 L41.5,253.4922 " fill="none" style="stroke:#181818;stroke-width:0.5;"/><rect fill="#E2E2F0" height="30.2969" rx="2.5" ry="2.5" style="stroke:#181818;stroke-width:0.5;" width="60" x="128.5" y="70.1328"/><text fill="#000000" font-family="sans-serif" font-size="14" lengthAdjust="spacing" textLength="46" x="135.5" y="90.1279">:Game</text><rect fill="#E2E2F0" height="30.2969" rx="2.5" ry="2.5" style="stroke:#181818;stroke-width:0.5;" width="60" x="128.5" y="178.6953"/><text fill="#000000" font-family="sans-serif" font-size="14" lengthAdjust="spacing" textLength="46" x="135.5" y="198.6904">:Game</text><rect fill="#FFFFFF" height="38.1328" style="stroke:#181818;stroke-width:1.0;" width="10" x="153.5" y="132.5625"/><polygon fill="#181818" points="141.5,128.5625,151.5,132.5625,141.5,136.5625,145.5,132.5625" style="stroke:#181818;stroke-width:1.0;"/><line style="stroke:#181818;stroke-width:1.0;" x1="28.5" x2="147.5" y1="132.5625" y2="132.5625"/><text fill="#000000" font-family="sans-serif" font-size="13" font-weight="bold" lengthAdjust="spacing" textLength="9" x="35.5" y="127.4966">1</text><text fill="#000000" font-family="sans-serif" font-size="13" lengthAdjust="spacing" textLength="93" x="48.5" y="127.4966">Shoot missiles</text><polygon fill="#181818" points="39.5,157.6953,29.5,161.6953,39.5,165.6953,35.5,161.6953" style="stroke:#181818;stroke-width:1.0;"/><line style="stroke:#181818;stroke-width:1.0;" x1="33.5" x2="152.5" y1="161.6953" y2="161.6953"/><text fill="#000000" font-family="sans-serif" font-size="13" font-weight="bold" lengthAdjust="spacing" textLength="9" x="45.5" y="156.6294">2</text><text fill="#000000" font-family="sans-serif" font-size="13" lengthAdjust="spacing" textLength="4" x="58.5" y="156.6294"> </text><!--MD5=[3a7943b4f98d9090cc771462b564dfbd]
@startuml
'https://plantuml.com/sequence-diagram

autonumber

box Shoot missiles (F03)
    actor "Player" as player
    participant ":Game" as game
end box

player -> game : Shoot missiles
activate game
game -> player


@enduml

@startuml

autonumber

box Shoot missiles (F03)
    actor "Player" as player
    participant ":Game" as game
end box

player -> game : Shoot missiles
activate game
game -> player


@enduml

PlantUML version 1.2022.5(Sat Apr 30 10:55:52 UTC 2022)
(GPL source distribution)
Java Runtime: OpenJDK Runtime Environment
JVM: OpenJDK 64-Bit Server VM
Default Encoding: UTF-8
Language: en
Country: null
--></g></svg>