<?xml version="1.0" encoding="utf-8"?>
<!-- Generator: Adobe Illustrator 25.4.1, SVG Export Plug-In . SVG Version: 6.00 Build 0)  -->
<svg version="1.1" id="Layer_1" xmlns="http://www.w3.org/2000/svg" x="0px" y="0px"
     viewBox="0 0 102 92" style="enable-background:new 0 0 102 92;" xml:space="preserve">
<style type="text/css">
	.st0{fill:#FFFFFF;}
</style>
<g>
	<g>
		<path class="st0" d="M22.31,38.57v-3.72h0.82c-0.69-0.39-0.82-1.07-0.82-1.53v-8.19c0-0.7,0.3-1.88,2.28-1.88h6.71v13.48
			c0,0.69-0.3,1.85-2.28,1.85H22.31z"/>
		<path d="M30.8,23.74v12.98c0,0.91-0.6,1.35-1.78,1.35h-6.21v-2.72h4.39c0.02,0,0.03-0.02,0.03-0.03v-0.65h-2.65
			c-1.18,0-1.78-0.44-1.78-1.35v-8.19c0-0.92,0.6-1.38,1.78-1.38H30.8 M26.4,31.95h0.84v-5.47H26.4c-0.02,0-0.03,0.02-0.03,0.03v5.4
			C26.37,31.93,26.38,31.95,26.4,31.95 M31.8,22.74h-1h-6.21c-2.58,0-2.78,1.83-2.78,2.38v8.19c0,0.22,0.03,0.62,0.22,1.03h-0.22v1
			v2.72v1h1h6.21c2.58,0,2.78-1.8,2.78-2.35V23.74V22.74L31.8,22.74z"/>
	</g>
	<g>
		<path class="st0" d="M42.2,35.17c-1.98,0-2.28-1.16-2.28-1.85v-4.12c0-0.47,0.14-1.16,0.85-1.55h-0.85v-2.52
			c0-0.57,0.22-1.88,2.28-1.88h4.43c2.06,0,2.28,1.32,2.28,1.88v10.04H42.2z"/>
		<path d="M46.63,23.74c1.18,0,1.78,0.46,1.78,1.38v9.54H42.2c-1.18,0-1.78-0.44-1.78-1.35v-4.12c0-0.91,0.6-1.35,1.78-1.35h2.65
			v-1.33c0-0.02-0.02-0.03-0.03-0.03h-0.8c-0.02,0-0.03,0.02-0.03,0.03v0.63h-3.56v-2.02c0-0.92,0.6-1.38,1.78-1.38H46.63
			 M44.01,31.95h0.84v-1.71h-0.84c-0.02,0-0.03,0.02-0.03,0.03v1.64C43.98,31.93,43.99,31.95,44.01,31.95 M46.63,22.74H42.2
			c-2.58,0-2.78,1.83-2.78,2.38v2.02v1h0.23c-0.2,0.42-0.23,0.83-0.23,1.05v4.12c0,0.55,0.2,2.35,2.78,2.35h6.21h1v-1v-9.54
			C49.41,24.57,49.21,22.74,46.63,22.74L46.63,22.74z"/>
	</g>
	<g>
		<path class="st0" d="M55.42,38.57c-2,0-2.29-1.16-2.29-1.85v-1.55h-4.43V23.24h4.56v0.35c0.59-0.23,1.31-0.35,2.15-0.35
			c2.06,0,2.28,1.32,2.28,1.88v9.72h8.82v3.72H55.42z"/>
		<path d="M55.4,23.74c1.18,0,1.78,0.46,1.78,1.38v10.19c0,0.02,0.02,0.03,0.03,0.03H66v2.72H55.42c-1.2,0-1.8-0.44-1.8-1.35V26.51
			c0-0.02-0.02-0.03-0.03-0.03h-0.8c-0.02,0-0.03,0.02-0.03,0.03v8.16h-3.56V23.74h3.56v0.7C53.35,23.98,54.24,23.74,55.4,23.74
			 M55.4,22.74c-0.61,0-1.16,0.06-1.65,0.18v-0.18h-1h-3.56h-1v1v10.92v1h1h3.43v1.05c0,0.55,0.2,2.35,2.8,2.35H66h1v-1v-2.72v-1h-1
			h-7.82v-9.22C58.18,24.57,57.98,22.74,55.4,22.74L55.4,22.74z"/>
	</g>
	<g>
		<path class="st0" d="M59.79,35.17c-1.88,0-2.28-1.01-2.28-1.85v-8.19c0-0.57,0.22-1.88,2.28-1.88h2.15v-2.74h4.56v14.66H59.79z"/>
		<path d="M66,21.01v13.66h-6.21c-1.23,0-1.78-0.44-1.78-1.35v-8.19c0-0.92,0.6-1.38,1.78-1.38h2.65v-2.74H66 M61.61,31.95h0.84
			v-5.47h-0.84c-0.02,0-0.03,0.02-0.03,0.03v5.4C61.57,31.93,61.59,31.95,61.61,31.95 M67,20.01h-1h-3.56h-1v1v1.74h-1.65
			c-2.58,0-2.78,1.83-2.78,2.38v8.19c0,0.71,0.27,2.35,2.78,2.35H66h1v-1V21.01V20.01L67,20.01z"/>
	</g>
	<g>
		<path class="st0" d="M33.51,51.63c-1.98,0-2.28-1.16-2.28-1.85v-5.67h-0.87v-3.7h0.87v-0.7h4.56v0.7h4.43v9.37
			c0,0.69-0.3,1.85-2.28,1.85H33.51z"/>
		<path d="M35.29,40.2v0.7h4.43v2.7h-4.43v4.77c0,0.02,0.02,0.03,0.03,0.03h0.82c0.02,0,0.03-0.02,0.03-0.03v-4.07h3.54v5.47
			c0,0.91-0.6,1.35-1.78,1.35h-4.43c-1.18,0-1.78-0.44-1.78-1.35v-6.17h-0.87v-2.7h0.87v-0.7H35.29 M36.29,39.2h-1h-3.56h-1v0.7
			h-0.87v1v2.7v1h0.87v5.17c0,0.55,0.2,2.35,2.78,2.35h4.43c2.58,0,2.78-1.8,2.78-2.35v-5.17v-1v-2.7v-1h-1h-3.43V39.2L36.29,39.2z"
			/>
	</g>
	<g>
		<path class="st0" d="M51.1,51.63c-1.98,0-2.28-1.16-2.28-1.85v-8.19c0-0.57,0.22-1.88,2.28-1.88h4.43c2.06,0,2.28,1.32,2.28,1.88
			v8.19c0,0.69-0.3,1.85-2.28,1.85H51.1z"/>
		<path d="M55.53,40.2c1.18,0,1.78,0.46,1.78,1.38v5.45h-4.43v1.33c0,0.02,0.02,0.03,0.03,0.03h0.8c0.02,0,0.03-0.02,0.03-0.03
			v-0.65h3.56v2.05c0,0.91-0.6,1.35-1.78,1.35H51.1c-1.18,0-1.78-0.44-1.78-1.35v-8.19c0-0.92,0.6-1.38,1.78-1.38H55.53 M52.88,44.5
			h0.87v-1.52c0-0.02-0.02-0.03-0.03-0.03h-0.8c-0.02,0-0.03,0.02-0.03,0.03V44.5 M55.53,39.2H51.1c-2.58,0-2.78,1.83-2.78,2.38
			v8.19c0,0.55,0.2,2.35,2.78,2.35h4.43c2.58,0,2.78-1.8,2.78-2.35v-1.74v-1v-5.45C58.31,41.03,58.11,39.2,55.53,39.2L55.53,39.2z"
			/>
	</g>
	<g>
		<path class="st0" d="M51.1,68.09c-1.88,0-2.28-1.01-2.28-1.85v-8.19c0-0.57,0.22-1.88,2.28-1.88h2.15v-1.14h-6.52
			c-2,0-2.29-1.16-2.29-1.85v-1.55H40V38.57h-2.2c-1.98,0-2.28-1.16-2.28-1.85v-1.55H31.1V23.24h6.71c1.97,0,2.26,1.18,2.26,1.88
			v3.18c0,0.36-0.1,0.66-0.29,0.89c0.25,0.29,0.31,0.65,0.31,0.91v4.75h8.82v3.72h-4.34v1.14h2.15c2.06,0,2.28,1.32,2.28,1.88v9.72
			h8.82v3.72H57.8v13.06H51.1z"/>
		<path d="M37.81,23.74c1.18,0,1.76,0.46,1.76,1.38v3.18c0,0.53-0.29,0.82-0.87,0.89c0.6,0.09,0.89,0.38,0.89,0.91v5.21
			c0,0.02,0.02,0.03,0.03,0.03h8.79v2.72h-4.34v2.14h2.65c1.18,0,1.78,0.46,1.78,1.38v10.19c0,0.02,0.02,0.03,0.03,0.03h8.79v2.72
			H57.3v13.06H51.1c-1.23,0-1.78-0.44-1.78-1.35v-8.19c0-0.92,0.6-1.38,1.78-1.38h2.65v-2.14h-7.02c-1.2,0-1.8-0.44-1.8-1.35V42.97
			c0-0.02-0.02-0.03-0.03-0.03h-0.84v8.19H40.5V38.07h-2.7c-1.18,0-1.78-0.44-1.78-1.35v-6.39c0-0.02-0.02-0.03-0.03-0.03h-0.84
			v4.38H31.6V23.74H37.81 M35.16,28.12h0.84c0.02,0,0.03-0.02,0.03-0.03v-1.57c0-0.02-0.02-0.03-0.03-0.03h-0.84V28.12 M52.91,64.87
			h0.84V59.4h-0.84c-0.02,0-0.03,0.02-0.03,0.03v5.4C52.88,64.86,52.89,64.87,52.91,64.87 M37.81,22.74H31.6h-1v1v10.92v1h1h3.43
			v1.05c0,0.55,0.2,2.35,2.78,2.35h1.7v12.06v1h1h3.43v1.05c0,0.55,0.2,2.35,2.8,2.35h6.02v0.14H51.1c-2.58,0-2.78,1.83-2.78,2.38
			v8.19c0,0.71,0.27,2.35,2.78,2.35h6.21h1v-1V55.53l0.01-1v-2.72v-1h-1h-7.82v-9.22c0-0.56-0.2-2.38-2.78-2.38h-1.65v-0.14h3.34h1
			v-1v-2.72v-1h-1h-7.82V30.1c0-0.34-0.07-0.65-0.21-0.92c0.13-0.26,0.19-0.55,0.19-0.88v-3.18C40.57,24.57,40.37,22.74,37.81,22.74
			L37.81,22.74z"/>
	</g>
	<g>
		<path class="st0" d="M57.56,51.63V41.59c0-0.57,0.22-1.88,2.28-1.88h5.39v3.74H65.2v3.4h-3.08v4.79H57.56z"/>
		<path d="M64.73,40.2v2.74h-3.08c-0.02,0-0.03,0.02-0.03,0.03v0.63h3.08v2.74h-3.08v4.79h-3.56v-9.54c0-0.91,0.6-1.38,1.78-1.38
			H64.73 M65.73,39.2h-1h-4.89c-2.05,0-2.78,1.23-2.78,2.38v9.54v1h1h3.56h1v-1v-3.79h2.08h1v-1v-2.4h0.03v-1V40.2V39.2L65.73,39.2z
			"/>
	</g>
	<g>
		<path class="st0" d="M67.66,51.63c-1.98,0-2.28-1.16-2.28-1.85v-5.67h-0.87v-3.7h0.87v-0.7h4.56v0.7h4.43v9.37
			c0,0.69-0.3,1.85-2.28,1.85H67.66z"/>
		<path d="M69.43,40.2v0.7h4.43v2.7h-4.43v4.77c0,0.02,0.02,0.03,0.03,0.03h0.82c0.02,0,0.03-0.02,0.03-0.03v-4.07h3.54v5.47
			c0,0.91-0.6,1.35-1.78,1.35h-4.43c-1.18,0-1.78-0.44-1.78-1.35v-6.17h-0.87v-2.7h0.87v-0.7H69.43 M70.43,39.2h-1h-3.56h-1v0.7
			h-0.87v1v2.7v1h0.87v5.17c0,0.55,0.2,2.35,2.78,2.35h4.43c2.58,0,2.78-1.8,2.78-2.35v-5.17v-1v-2.7v-1h-1h-3.43V39.2L70.43,39.2z"
			/>
	</g>
	<g>
		<path class="st0" d="M22.49,71.49v-3.72h0.82c-0.69-0.39-0.82-1.07-0.82-1.53v-8.19c0-0.57,0.22-1.88,2.28-1.88h6.71v13.48
			c0,0.69-0.3,1.85-2.28,1.85H22.49z"/>
		<path d="M30.97,56.67v12.98c0,0.91-0.6,1.35-1.78,1.35h-6.21v-2.72h4.39c0.02,0,0.03-0.02,0.03-0.03v-0.65h-2.65
			c-1.18,0-1.78-0.44-1.78-1.35v-8.19c0-0.92,0.6-1.38,1.78-1.38H30.97 M26.58,64.87h0.84V59.4h-0.84c-0.02,0-0.03,0.02-0.03,0.03
			v5.4C26.55,64.86,26.56,64.87,26.58,64.87 M31.97,55.67h-1h-6.21c-2.58,0-2.78,1.83-2.78,2.38v8.19c0,0.22,0.03,0.62,0.22,1.03
			h-0.22v1v2.72v1h1h6.21c2.58,0,2.78-1.8,2.78-2.35V56.67V55.67L31.97,55.67z"/>
	</g>
	<g>
		<path class="st0" d="M31.47,68.75l0.49-1.02c-0.47-0.32-0.72-0.83-0.72-1.48v-8.19c0-0.57,0.22-1.88,2.28-1.88h4.12l0.75-1.54
			l1.72,0.67l-0.62,1.25c0.48,0.32,0.73,0.84,0.73,1.5v8.19c0,0.69-0.3,1.85-2.28,1.85h-4.13l-0.65,1.33L31.47,68.75z"/>
		<path d="M38.63,55.27l0.79,0.31l-0.6,1.21c0.6,0.19,0.91,0.62,0.91,1.27v8.19c0,0.91-0.6,1.35-1.78,1.35H33.5l-0.58,1.2
			l-0.77-0.31l0.48-0.99c-0.6-0.19-0.89-0.62-0.89-1.25v-8.19c0-0.92,0.6-1.38,1.78-1.38h4.43L38.63,55.27 M35.3,62.07l0.87-1.78
			v-0.85c0-0.02-0.02-0.03-0.03-0.03h-0.8c-0.02,0-0.03,0.02-0.03,0.03V62.07 M35.33,64.87h0.8c0.02,0,0.03-0.02,0.03-0.03v-2.65
			l-0.87,1.78v0.87C35.3,64.86,35.32,64.87,35.33,64.87 M38.14,54l-0.4,0.83l-0.41,0.84h-3.8c-2.58,0-2.78,1.83-2.78,2.38v8.19
			c0,0.65,0.21,1.21,0.6,1.61l-0.09,0.19l-0.47,0.97l0.99,0.4l0.77,0.31l0.86,0.35l0.41-0.84l0.31-0.63h3.82
			c2.58,0,2.78-1.8,2.78-2.35v-8.19c0-0.66-0.22-1.22-0.61-1.63l0.2-0.41l0.48-0.98l-1.01-0.4L39,54.33L38.14,54L38.14,54z"/>
	</g>
	<g>
		<path class="st0" d="M46.7,71.49c-1.98,0-2.28-1.16-2.28-1.85v-1.55H40V56.17h6.71c1.97,0,2.26,1.18,2.26,1.88v3.18
			c0,0.36-0.1,0.66-0.29,0.89c0.25,0.29,0.31,0.65,0.31,0.91v4.75h8.82v3.72H46.7z"/>
		<path d="M46.7,56.67c1.18,0,1.76,0.46,1.76,1.38v3.18c0,0.53-0.29,0.82-0.87,0.89c0.6,0.09,0.89,0.38,0.89,0.91v5.21
			c0,0.02,0.02,0.03,0.03,0.03h8.79v2.72H46.7c-1.18,0-1.78-0.44-1.78-1.35v-6.39c0-0.02-0.02-0.03-0.03-0.03h-0.84v4.38H40.5V56.67
			H46.7 M44.05,61.04h0.84c0.02,0,0.03-0.02,0.03-0.03v-1.57c0-0.02-0.02-0.03-0.03-0.03h-0.84V61.04 M46.7,55.67H40.5h-1v1v10.92v1
			h1h3.43v1.05c0,0.55,0.2,2.35,2.78,2.35h10.6h1v-1v-2.72v-1h-1h-7.82v-4.25c0-0.34-0.07-0.65-0.21-0.92
			c0.13-0.26,0.19-0.55,0.19-0.88v-3.18C49.46,57.49,49.27,55.67,46.7,55.67L46.7,55.67z"/>
	</g>
	<g>
		<rect x="57.61" y="56.17" class="st0" width="4.56" height="11.92"/>
		<path d="M61.66,56.67v10.92h-3.56V56.67H61.66 M62.66,55.67h-1h-3.56h-1v1v10.92v1h1h3.56h1v-1V56.67V55.67L62.66,55.67z"/>
	</g>
	<g>
		<path class="st0" d="M61.97,68.09V56.17h4.56v0.35c0.59-0.24,1.31-0.35,2.15-0.35c2.06,0,2.28,1.32,2.28,1.88v10.04H61.97z"/>
		<path d="M68.67,56.67c1.18,0,1.78,0.46,1.78,1.38v9.54H66.9v-8.16c0-0.02-0.02-0.03-0.03-0.03h-0.8c-0.02,0-0.03,0.02-0.03,0.03
			v8.16h-3.56V56.67h3.56v0.7C66.62,56.91,67.51,56.67,68.67,56.67 M68.67,55.67c-0.61,0-1.16,0.06-1.65,0.18v-0.18h-1h-3.56h-1v1
			v10.92v1h1h3.56h1h3.43h1v-1v-9.54C71.45,57.49,71.25,55.67,68.67,55.67L68.67,55.67z"/>
	</g>
	<g>
		<path class="st0" d="M70.7,71.49v-3.72h0.82c-0.69-0.39-0.82-1.07-0.82-1.53v-8.19c0-0.57,0.22-1.88,2.28-1.88h6.71v13.48
			c0,0.69-0.3,1.85-2.28,1.85H70.7z"/>
		<path d="M79.19,56.67v12.98c0,0.91-0.6,1.35-1.78,1.35H71.2v-2.72h4.39c0.02,0,0.03-0.02,0.03-0.03v-0.65h-2.65
			c-1.18,0-1.78-0.44-1.78-1.35v-8.19c0-0.92,0.6-1.38,1.78-1.38H79.19 M74.8,64.87h0.84V59.4H74.8c-0.02,0-0.03,0.02-0.03,0.03v5.4
			C74.76,64.86,74.78,64.87,74.8,64.87 M80.19,55.67h-1h-6.21c-2.58,0-2.78,1.83-2.78,2.38v8.19c0,0.22,0.03,0.62,0.22,1.03H70.2v1
			v2.72v1h1h6.21c2.58,0,2.78-1.8,2.78-2.35V56.67V55.67L80.19,55.67z"/>
	</g>
</g>
</svg>
